<?xml version="1.0" encoding="UTF-8" standalone="no"?>
<!DOCTYPE svg PUBLIC "-//W3C//DTD SVG 1.1//EN" "http://www.w3.org/Graphics/SVG/1.1/DTD/svg11.dtd">
<svg width="100%" height="100%" viewBox="0 0 1377 1956" version="1.1" xmlns="http://www.w3.org/2000/svg" xmlns:xlink="http://www.w3.org/1999/xlink" xml:space="preserve" xmlns:serif="http://www.serif.com/" style="fill-rule:evenodd;clip-rule:evenodd;stroke-linejoin:round;stroke-miterlimit:2;">
    <g transform="matrix(1,0,0,1,-552.136559,-776.1568)">
        <rect id="Prancheta1" x="0" y="0" width="2480.315" height="3507.874" style="fill:none;"/>
        <g id="Prancheta11" serif:id="Prancheta1">
            <g transform="matrix(2.652778,0,0,2.652778,-142.304033,637.265028)">
                <g transform="matrix(1,0,0,1,0,-258.4995)">
                    <path d="M482.472,344.151C484.124,345.151 594.939,456.753 594.941,456.756C604.346,466.224 613.575,475.424 622.989,484.886C627.321,489.239 646.912,509.288 651.172,512.882C653.471,514.822 655.989,517.678 658.203,519.894L679.237,540.993C688.721,550.49 697.965,559.775 707.439,569.282C712.741,574.603 727.179,588.587 731.841,593.881L735.242,597.661C743.049,606.338 750.862,619.803 755.131,633.943C765.055,666.81 756.645,700.657 740.19,722.794C723.443,745.324 698.983,760.889 669.021,763.984C651.687,765.775 635.419,763.142 620.794,757.355C599.293,748.85 588.466,735.922 586.732,735.017L586.722,761.838C587.149,763.029 588.486,763.532 589.209,764.181C593.034,766.156 596.942,769.266 603.656,772.631C633.45,787.563 667.485,789.533 699.167,778.528C711.381,774.285 726.884,765.637 735.852,757.785C741.826,752.555 743.355,751.126 749.132,745.168C749.659,744.624 749.894,744.201 750.391,743.605C751.34,742.467 752.167,741.614 753.138,740.433C759.457,732.746 765.913,722.65 770.547,711.642C780.684,687.563 783.699,660.373 776.673,633.013C769.912,606.68 756.513,588.644 742.723,574.882C727.236,559.426 712.057,544.111 696.595,528.629L615.874,447.996C612.05,444.163 608.03,440.381 604.42,436.492L479.127,310.857L449.492,310.857L482.472,344.151Z" style="fill:rgb(21,170,226);"/>
                </g>
                <g transform="matrix(1,0,0,1,0,261.7761)">
                    <path d="M369.195,54.996C353.168,57.469 341.11,60.859 328.291,67.466C263.403,100.907 241.216,183.256 283.203,245.407C287.038,251.085 290.978,255.516 295.013,260.134C296.204,261.497 297.271,262.223 298.52,263.487C304.648,269.693 331.871,296.376 334.78,299.909L336.789,302.086C338.241,302.823 519.894,485.33 534.207,499.692C541.946,507.458 555.494,520.445 562.187,527.755L591.824,527.755L366.927,302.435C366.176,301.788 365.406,301.013 364.821,300.204C359.491,294.751 354.291,289.643 348.918,284.248C346.266,281.587 343.493,279.117 340.815,276.434C338.089,273.701 335.586,271.204 332.866,268.466C323.685,259.223 309.397,245.758 301.985,235.684C282.806,209.614 275.994,170.968 291.066,136.026C315.428,79.547 384.727,57.56 437.698,90.597C441.963,93.257 447.763,97.512 451.378,100.947C452.425,101.943 454.352,103.764 455.525,104.617L455.525,77.312C453.367,75.528 449.854,73.413 447.172,71.767C423.479,57.225 397.42,52.358 369.195,54.996" style="fill:rgb(23,143,105);"/>
                </g>
                <g transform="matrix(1,0,0,1,0,4.4482)">
                    <path d="M520.969,350.417C558.692,350.417 589.273,380.998 589.273,418.72C589.273,456.443 558.692,487.025 520.969,487.025C483.246,487.025 452.665,456.443 452.665,418.72C452.665,380.998 483.246,350.417 520.969,350.417ZM520.969,360.016C553.391,360.016 579.674,386.299 579.674,418.72C579.674,451.142 553.391,477.426 520.969,477.426C488.547,477.426 462.264,451.142 462.264,418.72C462.264,386.299 488.547,360.016 520.969,360.016" style="fill:rgb(204,204,204);"/>
                </g>
                <g transform="matrix(1,0,0,1,0,53.1473)">
                    <path d="M545.78,407.743C548.299,407.743 553.455,408.565 555.022,407.001C556.587,405.438 555.766,400.276 555.766,397.758C555.766,395.854 556.01,389.226 555.671,387.861C554.994,385.14 550.91,385.083 550.696,388.998C550.52,392.209 550.915,395.689 550.658,398.893L541.186,389.557C539.497,387.87 538.036,386.407 536.348,384.719C535.404,383.774 532.747,380.178 530.502,382.483C528.244,384.802 531.923,387.506 532.898,388.482C534.534,390.117 535.944,391.526 537.58,393.163L546.897,402.622C543.691,402.861 540.244,402.537 537.019,402.685C532.923,402.874 533.292,406.988 535.891,407.64C537.276,407.987 543.857,407.743 545.78,407.743" style="fill:rgb(23,143,105);"/>
                </g>
                <g transform="matrix(1,0,0,1,0,54.0944)">
                    <path d="M492.558,401.661C495.431,398.446 498.748,395.351 501.874,392.23C503.564,390.543 505.025,389.081 506.713,387.393C507.65,386.457 511.248,383.74 508.954,381.515C506.629,379.261 503.931,382.987 502.962,383.954C500.917,385.995 490.071,397.094 488.795,397.934C488.624,394.688 488.938,391.251 488.754,388.051C488.53,384.14 484.482,384.134 483.822,386.938C483.433,388.589 483.697,394.705 483.697,396.811C483.697,408.535 482.59,406.792 493.66,406.792C495.54,406.792 502.231,407.034 503.564,406.705C506.003,406.101 506.645,402.006 502.417,401.765C499.251,401.585 495.655,401.979 492.558,401.661" style="fill:rgb(21,170,226);"/>
                </g>
                <g transform="matrix(1,0,0,1,0,-38.6663)">
                    <path d="M492.533,432.578C495.779,432.384 499.189,432.693 502.42,432.528C506.515,432.319 506.149,428.235 503.547,427.581C502.106,427.22 495.612,427.467 493.66,427.467C482.312,427.467 483.692,426.15 483.692,437.452C483.692,439.572 483.42,445.69 483.778,447.36C484.343,449.99 488.541,450.255 488.757,446.213C488.929,443.015 488.682,439.568 488.784,436.322C489.752,436.823 500.489,447.845 502.799,450.159C503.792,451.154 506.262,454.406 508.441,452.233C511.025,449.658 505.077,445.226 501.725,441.871L492.533,432.578Z" style="fill:rgb(23,143,105);"/>
                </g>
                <g transform="matrix(1,0,0,1,0,-38.7822)">
                    <path d="M546.941,432.66C546.447,433.704 539.202,440.595 537.76,442.032C536.121,443.665 534.717,445.078 533.079,446.714C532.078,447.714 528.827,450.152 531.036,452.312C533.249,454.478 535.643,451.342 536.674,450.308L550.661,436.433C550.909,439.604 550.56,443.12 550.717,446.328C550.909,450.277 555.08,450.162 555.678,447.481C556.027,445.916 555.762,439.619 555.762,437.568C555.762,426.194 557.151,427.585 545.78,427.585C543.778,427.585 537.387,427.329 535.88,427.685C533.294,428.297 532.953,432.421 537.02,432.645C540.183,432.82 543.714,432.596 546.941,432.66" style="fill:rgb(21,170,226);"/>
                </g>
                <g transform="matrix(1,0,0,1,0,-394.5809)">
                    <path d="M424.25,608.684C424.25,604.582 421.089,602.699 415.441,602.699C414.5,602.699 411.001,602.834 410.196,602.903L410.196,615.815C410.935,615.88 414.23,615.95 414.968,615.95C422.031,615.95 424.25,614.135 424.25,609.557L424.25,608.684ZM436.356,643.521L426.066,643.521C425.325,643.521 425.058,642.849 424.72,642.174L415.708,625.162L414.968,625.23C413.557,625.23 411.473,625.095 410.196,625.095L410.196,642.174C410.196,642.914 409.59,643.521 408.85,643.521L400.108,643.521C399.368,643.521 398.762,642.914 398.762,642.174L398.762,597.053C398.762,594.764 399.703,594.159 401.789,593.824C404.883,593.354 410.598,592.949 415.441,592.949C426.874,592.949 435.683,596.783 435.683,608.684L435.683,609.557C435.683,616.688 431.916,621.059 427.007,623.012L437.162,641.973C437.295,642.241 437.364,642.511 437.364,642.714C437.364,643.187 437.094,643.521 436.356,643.521" style="fill:rgb(88,89,91);fill-rule:nonzero;"/>
                </g>
                <g transform="matrix(1,0,0,1,0,-393.5035)">
                    <path d="M472.251,613.083C472.251,606.226 468.471,602.271 463.02,602.271C457.568,602.271 453.615,606.138 453.615,613.083L453.615,613.436L472.251,613.436L472.251,613.083ZM482.183,621.699L453.527,621.699L453.527,621.96C453.527,627.061 455.638,633.125 464.073,633.125C470.493,633.125 476.558,632.596 480.25,632.248L480.513,632.248C481.393,632.248 482.095,632.686 482.095,633.566L482.095,639.367C482.095,640.771 481.832,641.39 480.25,641.651C474.535,642.706 471.106,643.145 463.196,643.145C454.405,643.145 441.923,638.4 441.923,621.082L441.923,614.579C441.923,600.864 449.571,592.248 463.02,592.248C476.558,592.248 483.943,601.481 483.943,614.579L483.943,619.5C483.943,620.907 483.414,621.699 482.183,621.699" style="fill:rgb(88,89,91);fill-rule:nonzero;"/>
                </g>
                <g transform="matrix(1,0,0,1,0,-393.9086)">
                    <path d="M516.502,613.565C516.502,604.499 512.607,602.08 506.563,602.08C504.884,602.08 502.735,602.148 501.795,602.218L501.795,633.581C502.735,633.646 504.884,633.716 506.563,633.716C512.607,633.716 516.502,631.297 516.502,622.228L516.502,613.565ZM506.563,643.452C500.99,643.452 495.013,642.917 492.259,642.446C490.983,642.241 490.31,641.638 490.31,640.095L490.31,595.701C490.31,594.155 490.983,593.552 492.259,593.35C495.013,592.881 500.99,592.346 506.563,592.346C519.929,592.346 527.99,599.394 527.99,613.565L527.99,622.228C527.99,636.4 519.929,643.452 506.563,643.452" style="fill:rgb(88,89,91);fill-rule:nonzero;"/>
                </g>
                <g transform="matrix(1,0,0,1,0,-393.5035)">
                    <path d="M564.653,613.083C564.653,606.226 560.871,602.271 555.42,602.271C549.973,602.271 546.017,606.138 546.017,613.083L546.017,613.436L564.653,613.436L564.653,613.083ZM574.585,621.699L545.927,621.699L545.927,621.96C545.927,627.061 548.038,633.125 556.473,633.125C562.896,633.125 568.96,632.596 572.652,632.248L572.913,632.248C573.796,632.248 574.495,632.686 574.495,633.566L574.495,639.367C574.495,640.771 574.232,641.39 572.652,641.651C566.939,642.706 563.508,643.145 555.598,643.145C546.807,643.145 534.325,638.4 534.325,621.082L534.325,614.579C534.325,600.864 541.973,592.248 555.42,592.248C568.96,592.248 576.345,601.481 576.345,614.579L576.345,619.5C576.345,620.907 575.816,621.699 574.585,621.699" style="fill:rgb(88,89,91);fill-rule:nonzero;"/>
                </g>
                <g transform="matrix(1,0,0,1,0,-366.9046)">
                    <path d="M336.781,627.673L368.646,627.673L292.971,583.972L292.971,602.379L336.781,627.673ZM382.338,635.011L335.797,635.011C335.154,635.011 334.519,634.84 333.963,634.52L287.465,607.676C286.331,607.021 285.631,605.808 285.631,604.496L285.631,577.618C285.631,576.306 286.331,575.095 287.465,574.438C288.601,573.784 289.999,573.784 291.135,574.438L384.171,628.163C385.612,628.994 386.311,630.689 385.881,632.29C385.452,633.895 383.999,635.011 382.338,635.011" style="fill:rgb(7,98,148);fill-rule:nonzero;"/>
                </g>
                <g transform="matrix(1,0,0,1,0,-393.9468)">
                    <path d="M292.971,583.975L292.971,652.03L351.906,618.003L292.971,583.975ZM289.299,662.052C288.666,662.052 288.034,661.888 287.465,661.562C286.331,660.907 285.631,659.696 285.631,658.384L285.631,577.62C285.631,576.309 286.331,575.098 287.465,574.443C288.601,573.784 290.001,573.784 291.135,574.443L361.077,614.825C362.214,615.478 362.911,616.691 362.911,618.003C362.911,619.312 362.214,620.523 361.077,621.18L291.135,661.562C290.568,661.888 289.934,662.052 289.299,662.052" style="fill:rgb(21,170,226);fill-rule:nonzero;"/>
                </g>
                <g transform="matrix(1,0,0,1,0,308.4662)">
                    <path d="M498.073,264.335L492.78,267.149L492.78,247.242L511.169,237.464L540.906,253.276L460.631,295.959L430.894,280.148L475.941,256.196L475.941,276.063L470.648,278.902L470.747,264.97L441.896,280.185L460.57,289.967L529.429,253.346L510.899,243.493L498.073,250.314L498.073,264.335Z" style="fill:rgb(23,143,105);fill-rule:nonzero;"/>
                </g>
                <g transform="matrix(1,0,0,1,0,376.9895)">
                    <path d="M503.22,201.749L498.073,204.496L498.073,245.15L481.207,254.119L481.219,212.288L475.885,214.923L475.885,263.151L503.339,248.554L503.22,201.749Z" style="fill:rgb(23,143,105);fill-rule:nonzero;"/>
                </g>
                <g transform="matrix(1,0,0,1,0,351.4598)">
                    <path d="M521.021,229.608L521.021,235.184L533.811,235.184L533.811,260.822L539.386,260.771L539.386,235.184L552.184,235.184L552.184,229.608L521.021,229.608Z" style="fill:rgb(39,62,73);fill-rule:nonzero;"/>
                </g>
                <g transform="matrix(1,0,0,1,0,351.5441)">
                    <path d="M591.694,246.284C592.538,246.199 593.341,245.979 594.101,245.617C596.999,244.281 599.001,241.342 599.001,237.946C599.001,235.631 598.071,233.537 596.551,232.024C595.039,230.504 592.944,229.566 590.62,229.566L570.912,229.566L570.912,260.78L576.487,260.78L576.487,235.141L590.62,235.141C591.601,235.141 592.268,235.589 592.632,235.944C592.944,236.256 593.476,236.966 593.476,237.997C593.476,239.112 592.809,240.133 591.779,240.582C591.66,240.641 591.542,240.692 591.415,240.725L591.398,240.734L586.076,242.863L586.076,248.168C586.346,248.455 586.582,248.759 586.786,249.097L586.921,249.367L589.911,255.204L592.758,260.78L599.001,260.78L596.154,255.204L591.694,246.284Z" style="fill:rgb(39,62,73);fill-rule:nonzero;"/>
                </g>
                <g transform="matrix(0,1,1,0,375.30655,-23.93935)">
                    <path d="M608.091,242.474L636.17,242.474L636.17,248.049L604.965,248.049L608.091,242.474Z" style="fill:rgb(39,62,73);fill-rule:nonzero;"/>
                </g>
                <g transform="matrix(1,0,0,1,0,351.4595)">
                    <path d="M651.444,255.196C649.484,254.935 647.921,253.372 647.651,251.412L647.651,229.609L642.084,229.609L642.084,250.879C642.084,252.434 642.439,253.904 643.106,255.247C644.044,257.207 645.649,258.812 647.608,259.792C648.943,260.459 650.421,260.822 651.976,260.822L667.807,260.822L667.807,255.247L651.444,255.196Z" style="fill:rgb(39,62,73);fill-rule:nonzero;"/>
                </g>
                <g transform="matrix(1,0,0,1,0,351.3672)">
                    <path d="M712.174,232.995L712.174,240.979L692.111,240.979L692.111,229.659L686.535,232.513L686.535,260.864L692.111,257.874L692.111,246.554L712.174,246.554L712.174,260.864L717.749,257.755L717.749,229.659L712.174,232.995Z" style="fill:rgb(39,62,73);fill-rule:nonzero;"/>
                </g>
                <g transform="matrix(1,0,0,1,0,351.3672)">
                    <path d="M763.679,255.288L750.611,229.659L737.55,255.288L734.695,260.864L740.938,260.864L743.793,255.288L750.611,241.916L757.436,255.288L760.283,260.864L766.526,260.864L763.679,255.288Z" style="fill:rgb(39,62,73);fill-rule:nonzero;"/>
                </g>
            </g>
        </g>
    </g>
</svg>
